<?xml version="1.0" encoding="UTF-8"?>
<!DOCTYPE svg PUBLIC "-//W3C//DTD SVG 20001102//EN"
                     "http://www.w3.org/TR/2000/CR-SVG-20001102/DTD/svg-20001102.dtd">
<svg height="82" viewBox="0 0 378 82" width="378">
    <path d="M14 8 a12 41.0 0 0 0 0 64" fill="none" stroke="black"/>
    <g font-family="sans-serif" font-size="14" transform="translate(18, 29.0)">
        <path d="M3 0h-3v24h3" fill="none" stroke="black"/>
        <text font-size="14" text-anchor="middle" x="15.5"
                y="14">x<tspan baseline-shift="sub" font-size="12">1</tspan>
        </text>
        <text font-size="14" text-anchor="middle" x="44.0"
                y="14">y<tspan baseline-shift="sub" font-size="12">1</tspan>
        </text>
        <text font-size="14" text-anchor="middle" x="68.5" y="14">1</text>
        <path d="M79 0h3v24h-3" fill="none" stroke="black"/>
    </g>
    <text font-size="14" transform="translate(106, 48.0)">*</text>
    <g font-family="sans-serif" font-size="14" transform="translate(115, 5.0)">
        <path d="M3 0h-3v72h3" fill="none" stroke="black"/>
        <text font-size="14" text-anchor="middle" x="28.5" y="14">cos(a)</text>
        <text font-size="14" text-anchor="middle" x="28.5" y="38">sin(a)</text>
        <text font-size="14" text-anchor="middle" x="28.5" y="62">0</text>
        <text font-size="14" text-anchor="middle" x="86.5" y="14">-sin(a)</text>
        <text font-size="14" text-anchor="middle" x="86.5" y="38">cos(a)</text>
        <text font-size="14" text-anchor="middle" x="86.5" y="62">0</text>
        <text font-size="14" text-anchor="middle" x="127.5" y="14">0</text>
        <text font-size="14" text-anchor="middle" x="127.5" y="38">0</text>
        <text font-size="14" text-anchor="middle" x="127.5" y="62">1</text>
        <path d="M138 0h3v72h-3" fill="none" stroke="black"/>
    </g>
    <path d="M262 8 a12 41.0 0 0 1 0 64" fill="none" stroke="black"/>
    <text font-size="14" transform="translate(274, 48.0)">=</text>
    <g font-family="sans-serif" font-size="14" transform="translate(288, 29.0)">
        <path d="M3 0h-3v24h3" fill="none" stroke="black"/>
        <text font-size="14" text-anchor="middle" x="15.5"
                y="14">x<tspan baseline-shift="sub" font-size="12">2</tspan>
        </text>
        <text font-size="14" text-anchor="middle" x="44.0"
                y="14">y<tspan baseline-shift="sub" font-size="12">2</tspan>
        </text>
        <text font-size="14" text-anchor="middle" x="68.5" y="14">1</text>
        <path d="M79 0h3v24h-3" fill="none" stroke="black"/>
    </g>
</svg>
