<?xml version="1.0" encoding="UTF-8"?>
<!DOCTYPE svg PUBLIC "-//W3C//DTD SVG 1.0//EN" "http://www.w3.org/TR/2001/REC-SVG-20010904/DTD/svg10.dtd">
<svg viewBox="0 0 300 200" height="200" width="300">
<defs>
<path style="fill: none;" d="M 40 40 h 25 l -3 -3 m 3 3 l -3 3" id="wind-line"/>
</defs>
<text style="font-size: 10pt;" y="20" x="10">RKSL, SEOUL</text>
<g transform="translate(10, 40)" id="thermometer">
<path style="stroke: none; fill: red;" d="M 25 27.5 25 90 A 10 10 0 1 0 35 90 L 35 27.5 Z"/>
<path style="stroke: black; fill: none;" d="M 25 0 25 90 A 10 10 0 1 0 35 90 L 35 0 Z"/>
<g style="font-size: 8pt; font-family: sans-serif;" id="thermometer-text">
<text style="text-anchor: end;" y="95" x="20">-40</text>
<text style="text-anchor: end;" y="55" x="20">0</text>
<text style="text-anchor: end;" y="5" x="20">50</text>
<text style="text-anchor: end;" y="110" x="10">C</text>
<text y="95" x="40">-40</text>
<text y="55" x="40">32</text>
<text y="5" x="40">120</text>
<text y="110" x="50">F</text>
<text tstyle="ext-anchor: middle;" y="130" x="30">Temp.</text>
<text style="text-anchor: middle;" y="145" x="30">22.5 /
            73</text>
</g>
</g>
</svg>
